<svg width="114" height="115" viewBox="0 0 114 115" fill="none" xmlns="http://www.w3.org/2000/svg">
<g clip-path="url(#clip0)">
<path d="M44.478 54.4251L3.58122 75.6495C-0.865102 77.9567 -0.822665 84.3326 3.6531 86.58L44.8002 107.246C52.4951 111.11 61.5627 111.11 69.2576 107.246L110.404 86.58C114.88 84.3317 114.923 77.9567 110.477 75.6495L69.5789 54.4251C61.7108 50.3417 52.347 50.3417 44.478 54.4251V54.4251Z" fill="#2563EB"/>
<path d="M44.478 30.9127L3.58122 52.1379C-0.865102 54.4451 -0.822665 60.8201 3.6531 63.0684L44.8002 83.7342C52.4951 87.5985 61.5627 87.5985 69.2576 83.7342L110.404 63.0684C114.88 60.8201 114.923 54.4451 110.477 52.1379L69.5789 30.9135C61.7108 26.8301 52.347 26.8301 44.478 30.9127V30.9127Z" fill="#407BFC"/>
<path d="M69.2577 83.7341L98.1216 69.2373L69.5791 54.4251C61.7109 50.3417 52.3472 50.3417 44.4791 54.4251L15.9365 69.2373L44.8004 83.7341C52.4953 87.5985 61.5629 87.5985 69.2577 83.7341V83.7341Z" fill="#407BFC"/>
<path d="M44.478 7.40096L3.58122 28.6254C-0.865102 30.9334 -0.822665 37.3084 3.6531 39.5567L44.8002 60.2225C52.4951 64.0868 61.5627 64.0868 69.2576 60.2225L110.404 39.5567C114.88 37.3084 114.923 30.9334 110.477 28.6254L69.5789 7.40096C61.7108 3.31752 52.347 3.31752 44.478 7.40096V7.40096Z" fill="#80A7FF"/>
<path d="M69.2577 60.2226L98.1216 45.7257L69.5791 30.9127C61.7109 26.8292 52.3472 26.8292 44.4791 30.9127L15.9365 45.7257L44.8004 60.2226C52.4953 64.0869 61.5629 64.0869 69.2577 60.2226Z" fill="#80A7FF"/>
<path d="M69.2578 60.2225L75.0984 57.2892L69.5791 54.4251C61.711 50.3417 52.3472 50.3417 44.4782 54.4251L38.9597 57.2892L44.8004 60.2225C52.4944 64.0868 61.5629 64.0868 69.2578 60.2225Z" fill="#80A7FF"/>
</g>
<defs>
<clipPath id="clip0">
<rect width="113.516" height="113.515" fill="white" transform="translate(0.27124 0.56958)"/>
</clipPath>
</defs>
</svg>
