<?xml version="1.0" standalone="no"?>
<!DOCTYPE svg PUBLIC "-//W3C//DTD SVG 20010904//EN"
 "http://www.w3.org/TR/2001/REC-SVG-20010904/DTD/svg10.dtd">
<svg version="1.0" xmlns="http://www.w3.org/2000/svg"
 width="300.000000pt" height="331.000000pt" viewBox="0 0 300.000000 331.000000"
 preserveAspectRatio="xMidYMid meet">
<metadata>
Created by potrace 1.10, written by Peter Selinger 2001-2011
</metadata>
<g transform="translate(0.000000,331.000000) scale(0.100000,-0.100000)"
fill="#ffffff" stroke="none">
<path d="M1345 3303 c-28 -7 -35 -21 -35 -69 0 -53 23 -74 79 -74 38 0 42 -2
39 -22 -4 -31 -48 -50 -128 -56 -73 -5 -110 7 -110 37 0 14 10 21 35 25 47 9
68 42 59 91 -4 22 -16 42 -30 51 -21 14 -32 13 -131 -11 -126 -32 -169 -50
-175 -73 -7 -27 10 -77 32 -97 18 -17 26 -17 63 -8 47 13 57 10 57 -16 0 -24
-25 -45 -90 -75 -71 -33 -116 -42 -135 -26 -24 20 -18 33 23 55 46 25 53 60
21 111 -19 32 -26 36 -53 31 -34 -5 -198 -96 -234 -130 -27 -25 -28 -43 -2
-84 26 -43 60 -51 106 -23 38 22 53 16 54 -19 0 -22 -78 -88 -137 -118 -50
-24 -56 -25 -71 -10 -15 16 -14 19 10 44 42 45 43 66 7 107 -47 54 -66 49
-161 -43 -75 -74 -118 -126 -118 -143 0 -4 14 -23 31 -43 40 -45 74 -46 114
-5 22 23 32 27 42 19 20 -17 16 -41 -15 -90 -51 -79 -127 -131 -147 -99 -3 5
1 20 9 32 17 23 21 75 8 94 -4 6 -22 19 -40 28 -30 16 -36 16 -57 2 -32 -21
-145 -214 -145 -248 0 -34 42 -68 86 -68 25 0 38 7 53 29 12 16 21 34 21 40 0
17 15 13 35 -9 24 -26 15 -94 -22 -164 -23 -41 -34 -52 -57 -54 -24 -3 -28 -1
-21 15 4 10 9 34 12 53 6 44 -19 69 -75 77 -52 7 -62 -8 -101 -160 -24 -91
-28 -123 -20 -138 11 -22 48 -39 84 -39 28 0 65 43 65 76 0 35 39 29 52 -7 8
-22 -18 -167 -32 -185 -7 -8 -21 -14 -31 -14 -16 0 -19 8 -19 45 0 55 -28 78
-87 73 -54 -4 -63 -28 -63 -168 0 -145 8 -164 72 -168 39 -3 49 1 62 20 9 12
16 39 16 60 0 31 4 38 19 38 10 0 23 -6 29 -12 14 -18 32 -121 32 -189 0 -47
-4 -60 -19 -69 -28 -14 -29 -14 -37 24 -9 48 -45 80 -81 72 -46 -12 -73 -34
-73 -61 0 -41 60 -249 78 -268 36 -40 142 15 128 67 -3 12 -9 31 -12 44 -5 18
-2 22 18 22 14 0 32 -8 41 -17 20 -23 77 -143 77 -164 0 -16 -27 -47 -33 -38
-56 83 -74 92 -127 64 -35 -18 -52 -47 -43 -72 11 -32 123 -221 138 -233 31
-26 115 23 115 67 0 14 -8 38 -17 54 -16 26 -16 31 -3 39 8 5 21 10 28 10 19
0 89 -75 113 -121 18 -36 19 -45 8 -66 l-13 -23 -31 30 c-42 41 -84 41 -119
-1 -14 -17 -26 -36 -26 -43 0 -18 45 -74 113 -140 96 -95 124 -103 167 -49 28
36 25 67 -10 107 -31 35 -31 35 -10 46 44 23 50 9 50 -113 l0 -113 -102 -33
c-57 -19 -114 -38 -127 -43 l-24 -9 39 -34 c53 -48 229 -166 282 -189 23 -11
42 -23 42 -27 0 -4 -19 -42 -41 -84 -23 -42 -40 -77 -38 -78 24 -16 251 -81
369 -105 276 -58 680 -64 920 -13 132 27 350 105 350 124 0 4 -18 39 -40 78
-43 76 -47 89 -27 89 37 0 348 213 347 238 0 4 -57 25 -125 47 l-125 40 0 65
c0 144 15 189 55 174 21 -8 19 -19 -10 -48 -44 -44 -30 -105 32 -140 21 -12
65 19 144 101 98 99 103 110 79 151 -36 58 -91 65 -130 15 -25 -32 -50 -24
-50 16 0 33 63 123 106 152 21 13 32 15 46 8 18 -10 18 -11 -2 -43 -28 -47
-25 -71 13 -100 45 -34 80 -34 105 2 46 66 122 210 122 230 0 14 -14 31 -40
48 -35 23 -44 25 -66 16 -13 -7 -34 -28 -46 -47 -19 -34 -21 -35 -39 -19 -23
21 -19 45 22 131 31 65 56 87 84 77 11 -5 13 -13 8 -28 -15 -43 -9 -78 17 -97
35 -26 72 -32 93 -17 18 13 86 229 87 274 0 43 -75 78 -119 55 -11 -7 -26 -30
-33 -55 -12 -38 -15 -42 -35 -35 -30 11 -37 69 -19 158 17 80 29 101 57 101
15 0 19 -7 19 -38 0 -58 22 -82 75 -82 67 0 75 18 75 167 0 67 -4 133 -10 147
-8 23 -15 26 -59 26 -59 0 -81 -22 -81 -82 0 -31 -4 -38 -20 -38 -53 0 -91
176 -49 227 18 21 36 15 44 -14 10 -45 34 -73 59 -73 44 0 86 21 92 47 7 26
-39 217 -63 267 -14 26 -18 28 -60 23 -70 -8 -88 -37 -69 -114 7 -30 6 -33
-17 -33 -28 0 -47 19 -77 78 -31 60 -37 123 -14 142 14 12 18 12 22 2 10 -31
55 -72 79 -72 37 0 96 47 90 71 -10 38 -130 240 -148 250 -23 12 -48 6 -83
-22 -30 -23 -33 -56 -11 -100 33 -63 -17 -67 -75 -6 -53 54 -83 112 -76 143 8
30 23 30 47 0 38 -48 96 -40 135 18 14 22 14 28 1 53 -26 48 -182 193 -209
193 -31 0 -67 -26 -79 -57 -11 -29 10 -77 42 -93 16 -9 18 -14 8 -26 -6 -8
-20 -14 -31 -14 -54 0 -201 116 -196 154 3 23 17 24 64 5 46 -18 78 -6 98 40
14 29 15 43 7 59 -11 21 -199 135 -240 145 -33 8 -81 -40 -81 -82 0 -31 28
-66 62 -77 35 -11 10 -44 -34 -44 -60 0 -188 66 -188 97 1 26 17 32 52 21 47
-14 83 7 96 55 18 67 0 81 -143 116 -148 36 -179 30 -191 -34 -8 -44 8 -71 53
-86 53 -16 54 -18 43 -38 -13 -25 -86 -33 -178 -22 -82 10 -77 8 -86 39 -7 21
-4 22 38 22 57 0 86 25 86 73 0 66 -13 72 -157 74 -70 1 -137 -1 -148 -4z
m260 -68 c0 -29 -2 -30 -52 -33 -62 -4 -75 -19 -66 -76 8 -51 42 -67 162 -73
121 -7 163 7 181 61 16 50 9 63 -47 79 -41 13 -48 18 -45 38 1 13 6 27 10 31
7 7 208 -42 231 -57 15 -9 14 -40 -1 -53 -8 -5 -22 -6 -33 -1 -11 4 -34 8 -52
8 -29 1 -33 -3 -43 -39 -6 -23 -8 -50 -5 -60 14 -44 148 -111 222 -113 47 0
60 7 86 52 18 31 18 31 -6 53 -14 13 -35 30 -47 39 -20 13 -21 18 -11 38 16
29 26 27 144 -43 93 -55 96 -58 85 -81 -14 -30 -27 -31 -72 -4 -20 11 -43 18
-54 15 -18 -6 -42 -57 -42 -89 0 -26 68 -96 134 -139 68 -44 113 -49 157 -17
37 26 37 50 -1 87 -35 36 -38 57 -9 73 20 10 30 3 108 -75 73 -73 84 -89 75
-104 -18 -28 -47 -25 -79 8 -36 37 -44 37 -78 2 -33 -35 -35 -83 -6 -132 39
-63 89 -118 124 -134 31 -15 36 -15 69 1 46 21 53 45 27 89 -28 46 -26 62 4
70 14 4 27 5 29 3 2 -2 30 -49 61 -103 43 -75 55 -104 48 -115 -19 -30 -41
-23 -68 18 -30 48 -56 52 -99 18 -25 -20 -28 -30 -28 -71 2 -59 45 -158 84
-191 32 -27 61 -31 104 -15 26 10 26 12 20 69 -7 60 -1 71 39 71 12 0 82 -237
72 -246 -3 -3 -17 -6 -32 -7 -25 -2 -29 3 -41 44 -8 26 -21 50 -30 53 -24 9
-86 -24 -102 -54 -28 -53 5 -220 51 -258 9 -8 33 -12 59 -10 l43 3 5 55 c5 54
6 55 38 58 l33 3 -3 -128 -3 -128 -30 0 c-29 0 -30 2 -35 55 l-5 55 -46 3
c-41 3 -50 -1 -68 -24 -24 -31 -37 -75 -47 -160 -9 -85 7 -131 53 -150 50 -21
71 -11 84 42 13 52 19 57 53 45 l25 -10 -25 -93 c-41 -155 -41 -156 -69 -151
-29 6 -37 25 -25 59 21 53 13 72 -32 84 -52 15 -79 4 -112 -47 -27 -41 -66
-144 -66 -176 0 -24 56 -77 81 -77 10 0 31 19 49 45 26 38 34 44 50 35 10 -6
21 -14 24 -18 6 -10 -112 -222 -123 -222 -3 0 -17 7 -29 16 l-22 15 21 38 c27
49 22 72 -22 95 -34 18 -36 18 -73 1 -45 -21 -120 -118 -136 -173 -10 -38 -3
-58 35 -96 24 -23 41 -20 72 14 29 33 59 36 77 8 9 -15 -2 -31 -77 -105 -74
-75 -90 -86 -105 -77 -28 18 -25 48 8 77 38 34 38 49 -2 82 -42 35 -64 30
-169 -39 -115 -74 -302 -176 -388 -211 -39 -15 -68 -32 -64 -36 4 -4 36 -21
71 -39 35 -18 62 -34 60 -35 -2 -2 -57 -15 -123 -29 -233 -49 -445 -52 -640
-10 -38 8 -85 18 -102 21 -18 3 -33 8 -33 12 0 4 34 24 75 45 l75 39 -73 31
c-103 45 -265 132 -379 205 -54 34 -109 61 -123 61 -34 0 -85 -38 -85 -64 0
-11 14 -35 31 -52 33 -34 34 -59 3 -71 -11 -4 -42 21 -105 83 -83 83 -87 89
-72 106 22 25 35 23 68 -12 35 -37 51 -38 87 -3 40 39 37 77 -13 152 -43 64
-99 111 -134 111 -26 0 -85 -36 -85 -52 0 -7 9 -28 20 -46 26 -43 25 -56 -5
-70 -28 -13 -22 -21 -99 115 -25 45 -46 87 -46 92 0 6 10 16 22 22 19 10 24 9
37 -10 49 -69 56 -74 82 -61 70 36 75 73 26 182 -35 77 -87 132 -116 124 -9
-2 -28 -7 -44 -10 -22 -5 -27 -12 -27 -36 0 -16 4 -39 9 -53 5 -13 6 -28 3
-34 -10 -14 -51 -23 -58 -12 -6 10 -63 218 -64 232 0 14 44 25 57 15 7 -6 15
-25 19 -44 8 -45 26 -58 69 -50 53 10 70 44 68 130 -3 94 -20 169 -45 201 -17
22 -27 26 -67 23 l-46 -3 -5 -55 c-5 -53 -6 -55 -35 -55 l-30 0 0 125 0 125
30 0 c27 0 30 -3 33 -35 6 -78 8 -81 59 -78 41 3 50 8 69 35 13 20 26 63 33
111 15 99 4 136 -46 157 -45 19 -64 9 -83 -47 -16 -44 -34 -55 -60 -38 -13 8
-11 24 15 127 31 122 42 137 78 111 16 -12 17 -18 5 -61 -15 -56 -8 -66 51
-74 34 -5 46 -2 66 17 33 31 75 140 75 196 0 39 -5 51 -31 75 -45 42 -74 38
-99 -11 -22 -42 -48 -52 -70 -25 -10 12 -2 33 45 115 31 55 61 103 66 106 16
9 49 -7 49 -24 0 -9 -9 -32 -20 -50 -26 -42 -19 -64 26 -86 35 -16 38 -16 79
4 40 19 105 90 134 147 17 33 13 72 -10 104 -26 37 -57 37 -94 -1 -34 -36 -46
-37 -64 -9 -12 20 -7 28 75 110 83 83 89 87 106 72 25 -22 23 -35 -12 -68 -38
-37 -38 -57 2 -90 43 -36 82 -29 170 31 104 71 125 111 93 174 -18 36 -41 38
-95 10 l-39 -20 -15 22 c-21 29 -14 36 105 103 95 54 101 56 114 38 23 -29 18
-41 -24 -62 -21 -11 -41 -28 -45 -37 -9 -23 31 -83 61 -90 60 -15 214 47 249
101 19 30 11 103 -14 112 -8 4 -33 1 -56 -5 -47 -12 -69 -1 -64 32 3 18 21 26
118 53 105 29 116 30 128 15 21 -28 9 -46 -40 -60 -55 -15 -65 -34 -43 -86 19
-45 45 -56 133 -56 118 1 182 36 182 100 0 46 -13 58 -70 62 -34 2 -46 7 -48
21 -9 45 1 48 130 45 l123 -3 0 -30z m-799 -2460 c60 -36 146 -84 192 -106
l83 -42 -51 -29 c-46 -26 -55 -28 -86 -18 -20 7 -37 10 -38 8 -2 -1 -29 -51
-60 -111 -32 -59 -60 -107 -62 -107 -25 0 -284 163 -284 179 0 3 47 20 103 38
l103 32 -3 38 c-4 63 -9 183 -7 183 1 0 51 -29 110 -65z m1498 -44 l-7 -108
99 -33 c54 -18 102 -35 106 -39 8 -7 -145 -112 -233 -160 l-56 -31 -64 115
c-35 63 -69 115 -77 115 -7 0 -21 -4 -30 -9 -12 -6 -33 -1 -71 18 l-54 28 69
32 c81 38 291 158 299 172 19 30 25 0 19 -100z m-1254 -234 c272 -80 555 -79
879 3 67 17 126 28 130 26 16 -10 192 -336 187 -345 -10 -15 -166 -68 -266
-89 -271 -58 -605 -56 -915 8 -106 21 -315 79 -315 87 0 3 15 32 34 66 18 34
59 111 91 170 43 83 61 108 74 104 9 -3 54 -16 101 -30z"/>
<path d="M1390 2855 c0 -78 3 -95 15 -95 11 0 15 11 15 43 0 43 1 43 30 39 23
-3 36 -14 53 -43 12 -22 30 -39 40 -39 23 0 22 6 -12 49 -28 35 -28 38 -12 48
23 14 30 42 20 71 -8 20 -15 22 -79 22 l-70 0 0 -95z m124 59 c10 -26 -13 -44
-54 -44 -34 0 -38 3 -42 30 -4 30 -4 30 43 30 34 0 49 -4 53 -16z"/>
<path d="M1595 2878 c-3 -40 -8 -85 -11 -100 -4 -21 -2 -28 9 -28 16 0 21 20
33 138 5 51 3 62 -9 62 -11 0 -17 -18 -22 -72z"/>
<path d="M1242 2925 c-30 -7 -56 -15 -58 -18 -6 -6 35 -187 42 -187 3 0 37 7
76 16 50 11 67 19 59 27 -7 7 -25 7 -62 -1 -29 -7 -53 -11 -55 -10 -1 2 -5 15
-9 30 -6 24 -4 27 32 37 21 6 44 11 51 11 6 0 12 7 12 16 0 11 -5 14 -16 10
-9 -3 -33 -9 -53 -12 -34 -5 -39 -3 -44 17 -8 32 -3 36 53 44 33 5 50 12 50
21 0 16 -7 16 -78 -1z"/>
<path d="M1715 2916 c-17 -7 -36 -25 -43 -40 -13 -29 -16 -84 -6 -111 8 -19
55 -45 82 -45 21 0 72 36 72 51 0 14 -26 11 -40 -6 -16 -20 -64 -19 -81 1 -17
21 -15 79 5 109 24 37 72 34 94 -5 18 -32 39 -35 34 -4 -8 46 -67 71 -117 50z"/>
<path d="M1092 2883 c-10 -4 -11 -26 -7 -91 5 -75 4 -85 -7 -70 -61 73 -98
106 -117 101 -12 -3 -21 -7 -21 -8 0 -16 82 -175 90 -175 15 0 12 16 -10 61
-46 90 -43 96 19 29 72 -79 83 -75 71 30 -4 41 -7 76 -5 78 1 1 15 -29 31 -68
16 -38 34 -68 39 -66 6 2 9 9 8 17 -2 20 -67 169 -73 168 -3 0 -11 -3 -18 -6z"/>
<path d="M1879 2783 c-38 -36 -69 -70 -69 -75 0 -16 32 -8 49 13 16 20 18 20
53 3 31 -14 37 -23 40 -53 6 -72 23 -23 26 77 5 127 -2 129 -99 35z m74 -10
c-5 -39 -7 -42 -27 -31 -11 6 -23 12 -25 14 -3 3 8 18 24 34 16 16 30 29 31
27 2 -1 0 -21 -3 -44z"/>
<path d="M2041 2708 c-27 -40 -50 -77 -51 -83 -1 -25 24 -5 61 50 l40 60 -3
-92 c-1 -52 2 -97 8 -103 12 -12 128 146 119 161 -11 17 -20 9 -60 -53 l-40
-62 -3 97 c-1 53 -7 97 -12 97 -5 0 -31 -33 -59 -72z"/>
<path d="M816 2732 c-8 -14 46 -212 56 -206 6 4 8 22 5 40 -5 29 -2 37 24 55
30 21 38 20 71 -3 13 -9 20 -10 28 -2 8 8 -13 27 -76 68 -89 57 -99 62 -108
48z m89 -71 c2 -5 -6 -16 -19 -24 -23 -16 -24 -15 -30 11 -4 15 -10 36 -13 46
-5 18 -3 17 26 -3 17 -12 33 -26 36 -30z"/>
<path d="M1385 2660 c-202 -22 -412 -139 -544 -302 -337 -416 -199 -1033 284
-1268 128 -62 188 -75 360 -75 130 0 160 3 225 23 306 97 524 335 586 641 21
109 15 274 -16 380 -112 393 -490 646 -895 601z m229 -39 c3 -4 27 -11 53 -15
51 -7 112 -26 134 -41 8 -6 44 -26 81 -45 82 -42 198 -151 257 -239 42 -65
101 -181 101 -201 0 -6 5 -21 12 -33 13 -26 16 -46 22 -204 3 -74 2 -125 -4
-128 -6 -3 -10 -22 -10 -41 0 -19 -4 -34 -10 -34 -5 0 -10 -10 -10 -23 0 -33
-30 -117 -42 -117 -5 0 -7 -4 -4 -9 3 -5 -4 -20 -15 -35 -11 -14 -17 -31 -13
-37 4 -7 3 -9 -4 -5 -6 4 -18 -8 -28 -29 -9 -20 -25 -40 -35 -45 -10 -6 -20
-19 -24 -29 -6 -19 -117 -115 -156 -136 -11 -5 -19 -13 -19 -17 0 -5 -6 -8
-14 -8 -7 0 -19 -7 -26 -15 -7 -8 -16 -12 -21 -9 -5 3 -9 0 -9 -5 0 -6 -6 -11
-13 -11 -8 0 -28 -7 -46 -16 -18 -9 -50 -18 -72 -21 -21 -3 -39 -9 -39 -14 0
-11 -7 -11 -194 -11 -93 0 -152 4 -159 11 -6 6 -20 11 -31 11 -30 0 -116 34
-126 50 -4 7 -12 10 -18 6 -6 -3 -16 0 -24 7 -7 8 -36 26 -63 41 -58 33 -219
196 -237 241 -6 16 -14 32 -17 35 -12 11 -31 50 -31 65 0 8 -4 15 -9 15 -5 0
-11 9 -14 20 -3 11 -1 18 4 14 20 -12 7 14 -17 35 -21 18 -24 25 -13 31 11 7
11 13 -1 36 -11 19 -15 63 -14 163 0 157 23 264 76 360 18 31 38 69 46 84 19
38 196 219 205 211 4 -4 7 -2 7 4 0 7 7 12 15 12 8 0 15 5 15 11 0 5 5 7 10 4
6 -3 10 -1 10 4 0 6 6 11 14 11 7 0 19 7 26 15 7 9 19 14 27 11 8 -3 12 -2 9
2 -6 10 124 52 159 52 13 0 27 5 30 10 8 12 262 14 269 1z"/>
<path d="M1160 2272 c0 -10 -13 -31 -30 -47 -16 -16 -51 -55 -76 -87 l-45 -58
50 0 c44 0 51 -3 51 -20 0 -11 -11 -37 -24 -58 -72 -115 -149 -320 -182 -485
-2 -10 -6 -27 -9 -38 -6 -18 1 -19 224 -19 l231 0 0 50 c0 100 51 160 136 160
32 0 49 -7 79 -33 35 -31 38 -36 43 -105 l5 -72 228 0 c180 0 229 3 229 13 0
14 -91 281 -112 328 l-13 29 -428 0 c-379 0 -428 2 -434 16 -13 36 9 38 404
41 214 2 398 6 410 8 13 3 30 17 39 30 16 24 15 27 -2 46 -43 48 -52 49 -413
49 -218 0 -342 4 -346 10 -3 6 -3 19 0 30 6 19 18 20 390 22 l384 3 -74 90
c-41 50 -72 96 -70 103 3 9 -65 12 -320 12 -307 0 -325 -1 -325 -18z m28 -93
l-3 -52 -43 -1 c-23 -1 -42 1 -42 3 0 10 73 101 81 101 6 0 9 -23 7 -51z m92
-3 c0 -53 0 -53 -30 -52 -29 1 -30 2 -30 54 0 51 0 52 30 52 30 0 30 -1 30
-54z m90 -1 c0 -54 0 -55 -30 -55 -30 0 -30 1 -30 55 0 54 0 55 30 55 30 0 30
-1 30 -55z m98 3 c-3 -50 -4 -52 -32 -52 -28 0 -29 2 -31 52 l-2 52 34 0 34 0
-3 -52z m92 -1 c0 -53 0 -54 -30 -54 -30 0 -30 1 -30 54 0 52 0 53 30 53 30 0
30 -1 30 -53z m90 0 c0 -53 0 -54 -30 -54 -30 0 -30 1 -30 54 0 52 0 53 30 53
30 0 30 -1 30 -53z m94 2 c-2 -50 -3 -52 -33 -54 l-31 -3 0 54 0 54 33 0 32 0
-1 -51z m84 2 c23 -27 42 -51 42 -53 0 -2 -20 -3 -44 -3 l-44 0 -4 53 c-2 28
0 52 3 52 3 0 25 -22 47 -49z m-674 -128 c0 -20 -6 -39 -12 -41 -7 -2 -12 -10
-12 -17 0 -7 -7 -15 -15 -19 -18 -7 -20 -43 -3 -48 15 -5 -13 -38 -33 -38 -8
0 -10 -12 -5 -38 6 -38 5 -39 -24 -39 -29 0 -41 19 -20 32 6 3 10 14 10 24 0
10 18 45 40 77 22 33 43 75 46 94 6 28 15 44 29 50 1 0 0 -17 -1 -37z m747
-84 l24 -21 -24 -19 c-32 -26 -44 -24 -37 5 3 14 1 28 -4 31 -11 7 -4 25 9 25
4 0 19 -9 32 -21z m-701 -19 c0 -27 -3 -30 -30 -30 -27 0 -30 3 -30 30 0 27 3
30 30 30 27 0 30 -3 30 -30z m90 0 c0 -27 -3 -30 -30 -30 -27 0 -30 3 -30 30
0 27 3 30 30 30 27 0 30 -3 30 -30z m90 0 c0 -27 -3 -30 -30 -30 -27 0 -30 3
-30 30 0 27 3 30 30 30 27 0 30 -3 30 -30z m90 0 c0 -27 -3 -30 -30 -30 -27 0
-30 3 -30 30 0 27 3 30 30 30 27 0 30 -3 30 -30z m90 0 c0 -27 -3 -30 -30 -30
-27 0 -30 3 -30 30 0 27 3 30 30 30 27 0 30 -3 30 -30z m90 0 c0 -27 -3 -30
-30 -30 -27 0 -30 3 -30 30 0 27 3 30 30 30 27 0 30 -3 30 -30z m90 0 c0 -26
-3 -30 -29 -30 -24 0 -29 5 -33 30 -4 28 -3 30 29 30 30 0 33 -3 33 -30z m90
-1 c0 -28 -2 -30 -31 -27 -26 2 -32 8 -35 31 -2 25 0 27 32 27 31 0 34 -2 34
-31z m-710 -199 c0 -30 -1 -30 -55 -30 -54 0 -55 0 -55 30 0 30 1 30 55 30 54
0 55 0 55 -30z m140 0 c0 -30 -1 -30 -55 -30 -54 0 -55 0 -55 30 0 30 1 30 55
30 54 0 55 0 55 -30z m130 0 c0 -29 -1 -30 -50 -30 -49 0 -50 1 -50 30 0 29 1
30 50 30 49 0 50 -1 50 -30z m140 0 c0 -30 -1 -30 -55 -30 -54 0 -55 0 -55 30
0 30 1 30 55 30 54 0 55 0 55 -30z m130 0 c0 -29 -1 -30 -50 -30 -49 0 -50 1
-50 30 0 29 1 30 50 30 49 0 50 -1 50 -30z m140 0 c0 -30 -1 -30 -55 -30 -54
0 -55 0 -55 30 0 30 1 30 55 30 54 0 55 0 55 -30z m140 0 c0 -30 -1 -30 -55
-30 -54 0 -55 0 -55 30 0 30 1 30 55 30 54 0 55 0 55 -30z m-850 -100 c0 -30
-1 -30 -55 -30 -51 0 -55 2 -55 23 0 33 7 37 62 37 47 0 48 -1 48 -30z m140 0
c0 -30 -1 -30 -55 -30 -54 0 -55 0 -55 30 0 30 1 30 55 30 54 0 55 0 55 -30z
m129 15 c-5 -29 -26 -45 -61 -45 -35 0 -38 2 -38 29 0 27 1 28 50 27 28 -1 49
-5 49 -11z m341 -16 c0 -27 -3 -29 -36 -29 -32 0 -72 28 -74 52 0 3 25 6 55 6
54 -1 55 -1 55 -29z m140 1 c0 -30 -1 -30 -55 -30 -54 0 -55 0 -55 30 0 30 1
30 55 30 54 0 55 0 55 -30z m130 0 c0 -29 -1 -30 -50 -30 -49 0 -50 1 -50 30
0 29 1 30 50 30 49 0 50 -1 50 -30z m-912 -97 c-3 -26 -6 -28 -53 -28 -50 0
-56 7 -46 50 1 3 24 5 52 5 49 0 50 -1 47 -27z m122 -3 c0 -29 -1 -30 -50 -30
-49 0 -50 1 -50 30 0 29 1 30 50 30 49 0 50 -1 50 -30z m130 0 c0 -29 -1 -30
-50 -30 -49 0 -50 1 -50 30 0 29 1 30 50 30 49 0 50 -1 50 -30z m440 -1 c0
-30 -1 -30 -46 -27 -43 3 -47 5 -50 31 -3 26 -1 27 47 27 48 0 49 -1 49 -31z
m130 1 c0 -29 -1 -30 -50 -30 -49 0 -50 1 -50 30 0 29 1 30 50 30 49 0 50 -1
50 -30z m130 0 c0 -29 -1 -30 -50 -30 -49 0 -50 1 -50 30 0 29 1 30 50 30 49
0 50 -1 50 -30z m-1060 -49 c0 -17 -18 -21 -24 -6 -3 9 0 15 9 15 8 0 15 -4
15 -9z"/>
<path d="M2284 2579 c-32 -11 -36 -36 -14 -86 11 -25 20 -51 20 -58 0 -25 -33
-26 -57 -3 -20 18 -24 30 -20 55 7 41 -9 52 -25 18 -24 -54 53 -138 99 -109
35 22 38 41 14 92 -13 28 -20 55 -17 61 20 32 72 -13 62 -53 -7 -28 11 -46 25
-25 14 23 10 55 -11 81 -23 30 -47 38 -76 27z"/>
<path d="M636 2563 c-12 -12 -5 -20 54 -63 33 -24 59 -44 57 -45 -1 -1 -38 2
-82 6 -78 8 -116 5 -114 -9 0 -4 34 -33 76 -65 49 -39 79 -55 85 -49 7 7 -9
24 -46 52 -31 23 -56 44 -56 46 0 2 40 1 89 -3 57 -4 90 -2 95 5 3 5 -24 34
-61 64 -82 65 -89 69 -97 61z"/>
<path d="M783 2553 c-21 -14 -32 -43 -17 -43 12 0 63 48 57 54 -9 9 -15 7 -40
-11z"/>
<path d="M2364 2406 c-69 -30 -85 -106 -35 -157 36 -36 75 -38 122 -6 62 42
61 130 -2 162 -34 18 -45 18 -85 1z m84 -32 c49 -34 7 -124 -59 -124 -34 0
-69 31 -69 61 0 28 53 79 82 79 13 0 34 -7 46 -16z"/>
<path d="M483 2323 c-5 -12 68 -103 115 -146 29 -26 40 -2 13 27 -21 23 -22
24 -5 60 16 33 21 36 50 30 23 -4 33 -2 37 10 5 12 0 16 -16 17 -12 0 -60 4
-106 8 -63 5 -85 3 -88 -6z m85 -19 c28 -6 30 -8 20 -30 -14 -31 -18 -30 -53
6 -31 32 -26 36 33 24z"/>
<path d="M425 2188 c-2 -7 -11 -37 -20 -66 -9 -29 -15 -55 -13 -58 8 -8 180
-55 184 -51 3 2 13 34 23 70 15 53 17 67 6 71 -9 3 -18 -13 -27 -52 -13 -51
-17 -57 -39 -54 -36 4 -41 15 -24 61 18 53 19 61 2 61 -7 0 -19 -22 -26 -50
-13 -50 -28 -61 -59 -42 -10 7 -9 17 3 51 8 24 15 50 15 57 0 17 -19 18 -25 2z"/>
<path d="M2423 2181 c-35 -22 -49 -64 -34 -104 12 -31 55 -61 76 -53 21 8 19
26 -3 26 -26 0 -52 32 -52 63 0 30 27 51 77 62 55 11 92 -45 61 -95 -16 -25
-2 -38 19 -17 25 25 22 82 -7 112 -29 31 -90 34 -137 6z"/>
<path d="M2515 1993 c-109 -16 -106 -15 -97 -30 6 -9 27 -9 95 1 48 7 90 15
93 19 18 18 -11 21 -91 10z"/>
<path d="M395 1976 c-22 -16 -39 -136 -20 -141 5 -2 49 -6 98 -9 73 -5 87 -4
87 9 0 11 -11 15 -38 15 -47 0 -51 3 -44 36 3 18 18 32 48 47 29 14 44 27 44
40 0 18 -3 17 -44 -7 l-44 -26 -16 25 c-18 28 -43 32 -71 11z m54 -30 c8 -9
10 -28 5 -50 -5 -31 -10 -36 -35 -36 -24 0 -29 4 -29 24 0 61 32 94 59 62z"/>
<path d="M2426 1911 c-2 -3 -2 -38 1 -78 4 -47 9 -70 17 -67 7 3 10 26 8 64
l-4 60 35 0 c31 0 34 -3 34 -27 0 -59 3 -83 13 -83 6 0 10 25 10 55 0 54 0 55
30 55 30 0 30 -1 30 -55 0 -44 3 -55 16 -55 11 0 14 5 10 16 -3 9 -6 40 -6 70
l0 55 -96 -2 c-52 -2 -97 -5 -98 -8z"/>
<path d="M399 1751 c-61 -61 -24 -151 61 -151 72 0 109 31 110 93 0 55 -35 87
-95 87 -38 0 -52 -5 -76 -29z m134 -23 c32 -37 16 -80 -36 -97 -71 -24 -129
35 -89 88 33 44 91 48 125 9z"/>
<path d="M2597 1724 c-4 -4 -7 -20 -7 -36 0 -23 -4 -28 -17 -24 -58 17 -147
26 -156 17 -13 -13 -3 -16 91 -31 l74 -12 -7 -34 c-4 -25 -2 -34 8 -34 17 0
44 137 30 151 -5 5 -12 6 -16 3z"/>
<path d="M549 1560 c-19 -29 -37 -58 -40 -63 -4 -6 -26 1 -54 17 -27 14 -50
25 -52 23 -12 -13 16 -38 70 -62 l62 -27 -47 -17 c-33 -11 -45 -20 -40 -28 10
-16 195 44 189 61 -4 11 -11 11 -57 1 -14 -3 -31 -1 -39 4 -11 7 -7 18 21 58
25 33 33 54 29 67 -6 16 -13 10 -42 -34z"/>
<path d="M2522 1527 c-59 -18 -67 -18 -102 -4 -32 12 -40 13 -44 1 -6 -16 -1
-19 41 -29 25 -5 43 -21 75 -67 34 -49 43 -56 49 -41 4 12 -4 30 -28 58 -37
43 -34 48 30 59 32 6 59 30 46 40 -2 1 -33 -6 -67 -17z"/>
<path d="M2236 1293 c-4 -9 1 -38 10 -65 9 -27 14 -51 12 -54 -3 -2 -26 0 -53
5 l-48 9 -78 -61 c-72 -58 -95 -87 -67 -87 6 0 21 9 33 20 l22 21 58 -75 c44
-56 62 -72 72 -65 9 8 -2 27 -47 82 l-60 72 25 22 c14 12 25 26 25 32 0 9 24
8 103 -4 15 -3 44 -17 63 -31 24 -19 38 -24 45 -17 7 7 -1 20 -25 39 -29 24
-38 42 -53 102 -18 73 -26 85 -37 55z"/>
<path d="M678 1213 c-49 -42 -75 -70 -71 -79 4 -12 12 -9 39 11 31 24 74 34
74 18 0 -5 -7 -30 -15 -58 -15 -48 -13 -95 3 -95 5 0 15 33 23 73 l15 72 64
-3 c59 -3 64 -2 50 13 -10 9 -45 18 -90 23 l-73 7 42 29 c39 27 48 46 25 52
-5 2 -44 -27 -86 -63z"/>
<path d="M830 1064 c-47 -30 -89 -55 -95 -58 -6 -2 -6 -8 2 -16 9 -10 17 -8
40 8 l28 20 30 -24 c25 -20 30 -31 30 -66 0 -71 19 -52 44 45 34 133 34 134
19 139 -7 3 -51 -19 -98 -48z m67 -32 c-6 -23 -14 -42 -17 -42 -8 1 -53 40
-49 43 16 12 74 45 75 44 2 -1 -3 -21 -9 -45z"/>
<path d="M964 960 c-49 -95 -51 -103 -35 -108 5 -2 27 30 48 70 l37 73 11
-100 c13 -132 25 -134 87 -13 34 66 44 95 35 100 -8 5 -25 -18 -51 -70 -22
-42 -41 -70 -42 -62 -2 8 -6 54 -9 102 -9 119 -22 121 -81 8z"/>
<path d="M1956 1042 c-5 -9 101 -188 109 -185 29 10 30 11 14 29 -9 10 -35 52
-59 92 -41 69 -53 82 -64 64z"/>
<path d="M1842 980 c-18 -11 -37 -31 -43 -44 -17 -36 -2 -94 31 -128 58 -57
160 -24 160 52 0 39 -24 36 -28 -3 -4 -29 -35 -57 -65 -57 -27 0 -65 43 -73
84 -5 31 -2 41 17 62 25 27 60 31 79 9 13 -16 30 -11 30 9 0 13 -41 36 -63 36
-7 0 -27 -9 -45 -20z"/>
<path d="M1177 932 c-31 -34 -21 -60 33 -94 38 -24 50 -37 48 -52 -6 -42 -93
-28 -100 16 -4 28 -28 36 -28 10 0 -34 11 -52 41 -67 59 -31 119 -7 119 46 0
25 -8 35 -50 61 -50 31 -64 60 -35 72 24 9 65 -12 75 -39 12 -32 30 -32 30 -1
0 54 -97 88 -133 48z"/>
<path d="M1390 896 c-5 -13 -27 -60 -49 -105 -38 -74 -40 -81 -21 -81 11 0 20
6 20 13 0 7 6 21 13 31 11 15 21 17 56 11 36 -6 43 -11 48 -37 5 -26 27 -47
38 -36 2 2 -12 54 -31 116 -36 115 -55 138 -74 88z m46 -104 c-2 -2 -17 -2
-33 0 l-29 3 19 45 20 45 13 -45 c7 -24 12 -46 10 -48z"/>
<path d="M1535 895 c-14 -13 -25 -29 -25 -35 0 -24 49 -60 83 -60 46 0 76 -23
61 -47 -17 -27 -80 -30 -96 -4 -15 24 -38 28 -38 6 0 -54 101 -75 145 -30 47
47 20 94 -59 102 -53 6 -75 25 -56 48 7 8 27 15 45 15 20 0 35 -6 39 -15 6
-17 36 -21 36 -5 0 6 -9 19 -20 30 -29 29 -84 27 -115 -5z"/>
<path d="M1020 423 c0 -12 69 -37 78 -28 3 2 2 11 -1 18 -7 19 -77 28 -77 10z"/>
<path d="M1976 421 c-4 -5 5 -56 19 -113 14 -56 25 -111 25 -121 0 -13 6 -18
23 -15 12 2 22 8 22 13 0 6 -13 63 -29 128 -27 109 -42 137 -60 108z"/>
<path d="M965 400 c-11 -18 6 -30 43 -30 20 -1 55 -7 77 -15 22 -8 41 -15 43
-15 1 0 2 9 2 20 0 15 -7 20 -28 20 -16 0 -51 7 -78 15 -59 18 -52 17 -59 5z"/>
<path d="M1150 384 c0 -15 -7 -57 -16 -92 -14 -54 -14 -66 -3 -73 22 -14 26
-11 33 25 5 28 10 33 26 29 15 -4 20 0 20 16 0 13 -6 21 -16 21 -13 0 -15 6
-9 33 12 56 11 62 -12 65 -19 3 -23 -1 -23 -24z"/>
<path d="M1868 386 c-26 -7 -35 -15 -30 -23 6 -10 16 -10 45 -1 35 11 46 22
30 31 -5 2 -25 -1 -45 -7z"/>
<path d="M1572 274 c-2 -94 -2 -95 20 -92 22 3 23 8 26 96 3 90 2 92 -20 92
-22 0 -23 -4 -26 -96z"/>
<path d="M1905 355 c-22 -8 -55 -14 -73 -14 -26 -1 -33 -5 -30 -18 2 -10 11
-16 19 -14 8 1 44 10 80 19 47 11 65 20 62 29 -6 15 -5 15 -58 -2z"/>
<path d="M1416 339 c-53 -41 -22 -109 50 -109 39 0 64 27 64 68 0 25 -6 35
-30 47 -38 20 -52 19 -84 -6z m74 -35 c18 -21 -9 -49 -39 -39 -20 6 -28 34
-14 48 11 12 40 7 53 -9z"/>
<path d="M971 336 c-19 -23 4 -54 49 -66 47 -13 80 0 80 30 0 42 -101 70 -129
36z m88 -19 c13 -16 5 -27 -19 -27 -20 0 -43 24 -33 33 11 12 40 8 52 -6z"/>
<path d="M1887 310 c-74 -22 -78 -80 -6 -80 35 0 20 -17 -21 -24 -41 -6 -46
-11 -31 -34 6 -10 14 -10 32 -3 13 5 50 17 82 26 36 10 57 21 57 30 0 18 -9
19 -44 5 -31 -11 -34 0 -6 25 25 23 25 41 1 55 -22 11 -26 11 -64 0z m41 -32
c-5 -15 -58 -24 -58 -10 0 15 12 22 38 22 14 0 22 -5 20 -12z"/>
<path d="M969 245 c-1 -14 -2 -30 -3 -37 -1 -7 33 -19 79 -29 99 -22 115 -23
115 -5 0 16 -8 19 -92 36 -45 9 -58 15 -58 30 0 10 -7 21 -16 24 -23 9 -24 8
-25 -19z"/>
<path d="M1419 181 c-1 -17 -2 -37 -3 -43 -1 -9 29 -14 102 -16 97 -4 104 -3
100 15 -2 10 -12 18 -23 19 -11 1 -46 2 -77 3 -50 1 -57 3 -60 23 -2 13 -11
24 -20 26 -14 3 -18 -4 -19 -27z"/>
</g>
</svg>
