<?xml version="1.0" encoding="utf-8"?>
<!-- Generator: Adobe Illustrator 24.0.0, SVG Export Plug-In . SVG Version: 6.00 Build 0)  -->
<svg version="1.1" id="Layer_1" xmlns="http://www.w3.org/2000/svg" xmlns:xlink="http://www.w3.org/1999/xlink" x="0px" y="0px"
	 viewBox="0 0 368 117" style="enable-background:new 0 0 368 117;" xml:space="preserve">
<style type="text/css">
	.st0{clip-path:url(#SVGID_2_);}
	.st1{fill:#2563EB;}
	.st2{fill:#407BFC;}
	.st3{fill:#80A7FF;}
	.st4{fill:#FFFFFF;}
</style>
<g>
	<defs>
		<rect id="SVGID_1_" x="0.3" y="1.6" width="113.5" height="113.5"/>
	</defs>
	<clipPath id="SVGID_2_">
		<use xlink:href="#SVGID_1_"  style="overflow:visible;"/>
	</clipPath>
	<g class="st0">
		<path class="st1" d="M44.5,55.4L3.6,76.6c-4.4,2.3-4.4,8.7,0.1,10.9l41.1,20.7c7.7,3.9,16.8,3.9,24.5,0l41.1-20.7
			c4.5-2.2,4.5-8.6,0.1-10.9L69.6,55.4C61.7,51.3,52.3,51.3,44.5,55.4L44.5,55.4z"/>
		<path class="st2" d="M44.5,31.9L3.6,53.1c-4.4,2.3-4.4,8.7,0.1,10.9l41.1,20.7c7.7,3.9,16.8,3.9,24.5,0l41.1-20.7
			c4.5-2.2,4.5-8.6,0.1-10.9L69.6,31.9C61.7,27.8,52.3,27.8,44.5,31.9L44.5,31.9z"/>
		<path class="st2" d="M69.3,84.7l28.9-14.5L69.6,55.4c-7.9-4.1-17.2-4.1-25.1,0L15.9,70.2l28.9,14.5C52.5,88.6,61.6,88.6,69.3,84.7
			L69.3,84.7z"/>
		<path class="st3" d="M44.5,8.4L3.6,29.6c-4.4,2.3-4.4,8.7,0.1,10.9l41.1,20.7c7.7,3.9,16.8,3.9,24.5,0l41.1-20.7
			c4.5-2.2,4.5-8.6,0.1-10.9L69.6,8.4C61.7,4.3,52.3,4.3,44.5,8.4L44.5,8.4z"/>
		<path class="st3" d="M69.3,61.2l28.9-14.5L69.6,31.9c-7.9-4.1-17.2-4.1-25.1,0L15.9,46.7l28.9,14.5C52.5,65.1,61.6,65.1,69.3,61.2
			z"/>
		<path class="st3" d="M69.3,61.2l5.8-2.9l-5.5-2.9c-7.9-4.1-17.2-4.1-25.1,0L39,58.3l5.8,2.9C52.5,65.1,61.6,65.1,69.3,61.2z"/>
	</g>
</g>
<path class="st4" d="M191,31.8v53.6h-8.9V45.2l-15.5,40.2h-7.7l-15.6-40.2v40.2h-8.8V31.8h10.7l17.8,42.8l17.4-42.8H191z M221,42.4
	c4.1,0,7.8,0.9,11.1,2.6c3.3,1.7,5.9,4.3,7.7,7.6c1.9,3.3,2.8,7.2,2.8,11.6c0,4.5-0.9,8.4-2.8,11.7c-1.9,3.3-4.4,5.8-7.7,7.6
	s-7,2.6-11.1,2.6c-4.1,0-7.8-0.9-11.1-2.6c-3.2-1.7-5.8-4.3-7.7-7.6c-1.9-3.3-2.8-7.2-2.8-11.7c0-4.4,0.9-8.3,2.8-11.6
	c1.9-3.3,4.5-5.8,7.7-7.6C213.2,43.2,216.9,42.4,221,42.4z M221,50c-2.3,0-4.3,0.5-6.3,1.5c-1.9,1-3.4,2.6-4.6,4.8
	c-1.1,2.1-1.7,4.7-1.7,7.8c0,3.1,0.6,5.8,1.7,7.9c1.2,2.1,2.7,3.7,4.6,4.7c1.9,1,4,1.5,6.3,1.5c2.3,0,4.3-0.5,6.3-1.5
	c1.9-1,3.4-2.6,4.6-4.7c1.2-2.1,1.8-4.7,1.8-7.9c0-3.1-0.6-5.7-1.8-7.8c-1.1-2.2-2.6-3.8-4.6-4.8C225.3,50.5,223.3,50,221,50z
	 M274.8,42.2c4.9,0,8.9,1.6,11.9,4.8c3,3.2,4.5,7.7,4.5,13.7v24.8h-8.8V61.6c0-3.8-1-6.7-2.9-8.8c-2-2.1-4.6-3.2-8-3.2
	c-3.5,0-6.3,1.1-8.4,3.4c-2.1,2.2-3.2,5.5-3.2,9.8v22.6h-8.8V42.9h8.8v9.3c1.1-3.2,3-5.7,5.7-7.4C268.2,43.1,271.3,42.2,274.8,42.2z
	 M315.5,42.4c5,0,9,1.3,12,3.9c3,2.5,4.9,5.9,5.6,10.2h-8.3c-0.4-2.3-1.4-4.2-3-5.6c-1.6-1.4-3.7-2.2-6.4-2.2
	c-2.2,0-3.9,0.5-5.2,1.6c-1.2,1-1.8,2.4-1.8,4.2c0,1.3,0.4,2.4,1.3,3.2c0.9,0.8,2,1.5,3.2,1.9c1.3,0.5,3.2,1,5.6,1.5
	c3.2,0.7,5.8,1.5,7.7,2.2c2,0.8,3.7,2,5.1,3.7c1.4,1.6,2.2,3.9,2.2,6.8c0,3.6-1.4,6.4-4.1,8.6c-2.7,2.2-6.3,3.3-10.9,3.3
	c-5.3,0-9.6-1.2-12.9-3.7c-3.2-2.5-5.2-5.9-5.9-10.3h8.6c0.3,2.3,1.3,4.2,3.1,5.6c1.8,1.4,4.2,2.2,7.1,2.2c2.1,0,3.8-0.5,4.9-1.6
	c1.2-1.1,1.9-2.5,1.9-4.2c0-1.5-0.5-2.7-1.4-3.6c-0.9-0.9-2.1-1.5-3.5-2c-1.4-0.5-3.3-1-5.7-1.5c-3.1-0.7-5.6-1.4-7.6-2.2
	c-1.9-0.7-3.6-1.9-4.9-3.5c-1.3-1.6-2-3.9-2-6.6c0-3.6,1.3-6.5,4-8.7C306.9,43.5,310.7,42.4,315.5,42.4z M363.6,77.8v7.6h-5.4
	c-4.5,0-8-1.1-10.3-3.2c-2.3-2.2-3.5-5.9-3.5-11V50.4h-6.1v-7.5h6.1V32.3h8.9v10.6h10.3v7.5h-10.3v21c0,2.4,0.4,4.1,1.3,5
	c0.9,0.9,2.5,1.4,4.8,1.4H363.6z"/>
</svg>
