<svg width="368" height="117" viewBox="0 0 368 117" fill="none" xmlns="http://www.w3.org/2000/svg">
<g clip-path="url(#clip0)">
<path d="M44.478 55.4251L3.58122 76.6495C-0.865102 78.9567 -0.822665 85.3326 3.6531 87.58L44.8002 108.246C52.4951 112.11 61.5627 112.11 69.2576 108.246L110.404 87.58C114.88 85.3317 114.923 78.9567 110.477 76.6495L69.5789 55.4251C61.7108 51.3417 52.347 51.3417 44.478 55.4251V55.4251Z" fill="#2563EB"/>
<path d="M44.478 31.9127L3.58122 53.1379C-0.865102 55.4451 -0.822665 61.8201 3.6531 64.0684L44.8002 84.7342C52.4951 88.5985 61.5627 88.5985 69.2576 84.7342L110.404 64.0684C114.88 61.8201 114.923 55.4451 110.477 53.1379L69.5789 31.9135C61.7108 27.8301 52.347 27.8301 44.478 31.9127V31.9127Z" fill="#407BFC"/>
<path d="M69.2577 84.7341L98.1216 70.2373L69.5791 55.4251C61.7109 51.3417 52.3472 51.3417 44.4791 55.4251L15.9365 70.2373L44.8004 84.7341C52.4953 88.5985 61.5629 88.5985 69.2577 84.7341V84.7341Z" fill="#407BFC"/>
<path d="M44.478 8.40096L3.58122 29.6254C-0.865102 31.9334 -0.822665 38.3084 3.6531 40.5567L44.8002 61.2225C52.4951 65.0868 61.5627 65.0868 69.2576 61.2225L110.404 40.5567C114.88 38.3084 114.923 31.9334 110.477 29.6254L69.5789 8.40096C61.7108 4.31752 52.347 4.31752 44.478 8.40096V8.40096Z" fill="#80A7FF"/>
<path d="M69.2577 61.2226L98.1216 46.7257L69.5791 31.9127C61.7109 27.8292 52.3472 27.8292 44.4791 31.9127L15.9365 46.7257L44.8004 61.2226C52.4953 65.0869 61.5629 65.0869 69.2577 61.2226Z" fill="#80A7FF"/>
<path d="M69.2578 61.2225L75.0984 58.2892L69.5791 55.4251C61.711 51.3417 52.3472 51.3417 44.4782 55.4251L38.9597 58.2892L44.8004 61.2225C52.4944 65.0868 61.5629 65.0868 69.2578 61.2225Z" fill="#80A7FF"/>
</g>
<path d="M190.951 31.7949V85.4385H182.075V45.2251L166.561 85.4385H158.842L143.251 45.2251V85.4385H134.452V31.7949H145.104L162.856 74.6326L180.3 31.7949H190.951ZM220.987 42.3693C225.104 42.3693 228.809 43.244 232.102 44.9936C235.395 46.7431 237.968 49.2645 239.82 52.5577C241.673 55.8509 242.599 59.7102 242.599 64.1354C242.599 68.6122 241.673 72.4971 239.82 75.7904C237.968 79.0836 235.395 81.605 232.102 83.3545C228.809 85.104 225.104 85.9788 220.987 85.9788C216.871 85.9788 213.166 85.104 209.873 83.3545C206.631 81.605 204.058 79.0836 202.154 75.7904C200.302 72.4457 199.375 68.5607 199.375 64.1354C199.375 59.7102 200.302 55.8509 202.154 52.5577C204.058 49.2645 206.631 46.7431 209.873 44.9936C213.166 43.244 216.871 42.3693 220.987 42.3693ZM220.987 50.0106C218.723 50.0106 216.639 50.5251 214.735 51.5543C212.831 52.5834 211.288 54.1786 210.104 56.3397C208.972 58.4495 208.406 61.048 208.406 64.1354C208.406 67.2743 208.972 69.8986 210.104 72.0083C211.288 74.118 212.831 75.6874 214.735 76.7166C216.639 77.7457 218.723 78.2603 220.987 78.2603C223.251 78.2603 225.335 77.7457 227.239 76.7166C229.143 75.6874 230.661 74.118 231.793 72.0083C232.977 69.8986 233.568 67.2743 233.568 64.1354C233.568 61.048 232.977 58.4495 231.793 56.3397C230.661 54.1786 229.143 52.5834 227.239 51.5543C225.335 50.5251 223.251 50.0106 220.987 50.0106ZM274.832 42.2149C279.771 42.2149 283.734 43.8101 286.718 47.0004C289.703 50.1907 291.195 54.7446 291.195 60.6621V85.4385H282.396V61.5883C282.396 57.7805 281.418 54.8475 279.463 52.7892C277.507 50.6795 274.832 49.6247 271.435 49.6247C267.936 49.6247 265.132 50.7567 263.022 53.0208C260.913 55.2334 259.858 58.5009 259.858 62.8233V85.4385H251.059V42.9096H259.858V52.2489C260.99 49.0586 262.894 46.5887 265.569 44.8392C268.245 43.0897 271.332 42.2149 274.832 42.2149ZM315.456 42.3693C320.447 42.3693 324.435 43.6557 327.419 46.2285C330.455 48.7499 332.308 52.146 332.977 56.4169H324.641C324.28 54.1014 323.277 52.2489 321.63 50.8596C320.035 49.4188 317.9 48.6984 315.224 48.6984C313.011 48.6984 311.288 49.2387 310.053 50.3193C308.869 51.3484 308.277 52.7635 308.277 54.5645C308.277 55.9024 308.715 56.983 309.589 57.8063C310.464 58.6296 311.545 59.2728 312.831 59.7359C314.169 60.199 316.047 60.7136 318.466 61.2796C321.656 62 324.229 62.7461 326.184 63.5179C328.191 64.2898 329.889 65.5248 331.278 67.2228C332.719 68.8694 333.44 71.1335 333.44 74.0151C333.44 77.5656 332.076 80.4472 329.349 82.6598C326.673 84.8725 323.045 85.9788 318.466 85.9788C313.166 85.9788 308.869 84.7438 305.576 82.2739C302.334 79.804 300.379 76.3564 299.71 71.9311H308.277C308.535 74.2467 309.564 76.1248 311.365 77.5656C313.166 79.0064 315.533 79.7268 318.466 79.7268C320.575 79.7268 322.222 79.1865 323.406 78.1059C324.641 76.9739 325.258 75.5588 325.258 73.8607C325.258 72.3685 324.795 71.185 323.869 70.3102C322.942 69.4355 321.785 68.7665 320.395 68.3034C319.006 67.7888 317.102 67.2743 314.684 66.7597C311.596 66.0393 309.075 65.3189 307.12 64.5985C305.216 63.8781 303.569 62.7204 302.18 61.1252C300.842 59.4786 300.173 57.266 300.173 54.4873C300.173 50.8853 301.511 47.978 304.187 45.7654C306.914 43.5013 310.67 42.3693 315.456 42.3693ZM363.644 77.7972V85.4385H358.241C353.713 85.4385 350.265 84.3579 347.898 82.1967C345.582 79.9841 344.425 76.3307 344.425 71.2364V50.3965H338.327V42.9096H344.425V32.3352H353.301V42.9096H363.567V50.3965H353.301V71.3908C353.301 73.8093 353.738 75.4816 354.613 76.4078C355.539 77.3341 357.134 77.7972 359.399 77.7972H363.644Z" fill="#353535"/>
<defs>
<clipPath id="clip0">
<rect width="113.516" height="113.515" fill="white" transform="translate(0.27124 1.56958)"/>
</clipPath>
</defs>
</svg>
